<mxfile host="65bd71144e">
    <diagram id="ZyWgkQTn7l_Bis8ufTQH" name="Page-1">
        <mxGraphModel dx="2873" dy="1767" grid="0" gridSize="10" guides="1" tooltips="1" connect="1" arrows="1" fold="1" page="1" pageScale="1" pageWidth="2336" pageHeight="1654" background="#BAB0FF" math="0" shadow="0">
            <root>
                <mxCell id="0"/>
                <mxCell id="1" parent="0"/>
                <mxCell id="2" value="SUBPHASE 0 - Host &amp; Domain" style="swimlane;fontStyle=0;childLayout=stackLayout;horizontal=1;startSize=80;horizontalStack=0;resizeParent=1;resizeParentMax=0;resizeLast=0;collapsible=1;marginBottom=0;fontSize=30;rounded=0;shadow=1;sketch=0;glass=0;swimlaneLine=1;strokeWidth=3;fillColor=#0050ef;fontColor=#ffffff;strokeColor=#001DBC;gradientColor=none;swimlaneFillColor=default;" parent="1" vertex="1">
                    <mxGeometry x="208" y="244" width="520" height="200" as="geometry"/>
                </mxCell>
                <mxCell id="3" value="Preparing the script to be hosted online" style="text;strokeColor=none;fillColor=none;align=left;verticalAlign=middle;spacingLeft=4;spacingRight=4;overflow=hidden;points=[[0,0.5],[1,0.5]];portConstraint=eastwest;rotatable=0;fontSize=20;" parent="2" vertex="1">
                    <mxGeometry y="80" width="520" height="30" as="geometry"/>
                </mxCell>
                <mxCell id="45" value="Adding dropdown feature to inputs" style="text;strokeColor=none;fillColor=none;align=left;verticalAlign=middle;spacingLeft=4;spacingRight=4;overflow=hidden;points=[[0,0.5],[1,0.5]];portConstraint=eastwest;rotatable=0;fontSize=20;" parent="2" vertex="1">
                    <mxGeometry y="110" width="520" height="30" as="geometry"/>
                </mxCell>
                <mxCell id="7" value="Improving transaction state displaying" style="text;strokeColor=none;fillColor=none;align=left;verticalAlign=middle;spacingLeft=4;spacingRight=4;overflow=hidden;points=[[0,0.5],[1,0.5]];portConstraint=eastwest;rotatable=0;fontSize=20;" parent="2" vertex="1">
                    <mxGeometry y="140" width="520" height="30" as="geometry"/>
                </mxCell>
                <mxCell id="4" value="Hosting the project on a test domain" style="text;strokeColor=none;fillColor=none;align=left;verticalAlign=middle;spacingLeft=4;spacingRight=4;overflow=hidden;points=[[0,0.5],[1,0.5]];portConstraint=eastwest;rotatable=0;fontSize=20;" parent="2" vertex="1">
                    <mxGeometry y="170" width="520" height="30" as="geometry"/>
                </mxCell>
                <mxCell id="8" value="SUBPHASE 1 - Balance ( LISTING )" style="swimlane;fontStyle=0;childLayout=stackLayout;horizontal=1;startSize=80;horizontalStack=0;resizeParent=1;resizeParentMax=0;resizeLast=0;collapsible=1;marginBottom=0;fontSize=30;rounded=0;shadow=1;sketch=0;glass=0;swimlaneLine=1;strokeWidth=3;fillColor=#0050ef;fontColor=#ffffff;strokeColor=#001DBC;swimlaneFillColor=default;" parent="1" vertex="1">
                    <mxGeometry x="208" y="661" width="600" height="200" as="geometry"/>
                </mxCell>
                <mxCell id="12" value="Users can inspect all of their NFT s" style="text;strokeColor=none;fillColor=none;align=left;verticalAlign=middle;spacingLeft=4;spacingRight=4;overflow=hidden;points=[[0,0.5],[1,0.5]];portConstraint=eastwest;rotatable=0;fontSize=20;" parent="8" vertex="1">
                    <mxGeometry y="80" width="600" height="30" as="geometry"/>
                </mxCell>
                <mxCell id="11" value="Showing picture and information of each owned NFT" style="text;strokeColor=none;fillColor=none;align=left;verticalAlign=middle;spacingLeft=4;spacingRight=4;overflow=hidden;points=[[0,0.5],[1,0.5]];portConstraint=eastwest;rotatable=0;fontSize=20;" parent="8" vertex="1">
                    <mxGeometry y="110" width="600" height="30" as="geometry"/>
                </mxCell>
                <mxCell id="44" value="Each NFT can be listed for a fixed price" style="text;strokeColor=none;fillColor=none;align=left;verticalAlign=middle;spacingLeft=4;spacingRight=4;overflow=hidden;points=[[0,0.5],[1,0.5]];portConstraint=eastwest;rotatable=0;fontSize=20;" parent="8" vertex="1">
                    <mxGeometry y="140" width="600" height="30" as="geometry"/>
                </mxCell>
                <mxCell id="13" value="Pushing updates to the online project" style="text;strokeColor=none;fillColor=none;align=left;verticalAlign=middle;spacingLeft=4;spacingRight=4;overflow=hidden;points=[[0,0.5],[1,0.5]];portConstraint=eastwest;rotatable=0;fontSize=20;" parent="8" vertex="1">
                    <mxGeometry y="170" width="600" height="30" as="geometry"/>
                </mxCell>
                <mxCell id="68" style="edgeStyle=none;html=1;exitX=1;exitY=0.5;exitDx=0;exitDy=0;entryX=0;entryY=0.5;entryDx=0;entryDy=0;fontSize=12;strokeWidth=3;" parent="1" source="16" target="66" edge="1">
                    <mxGeometry relative="1" as="geometry"/>
                </mxCell>
                <mxCell id="16" value="SUBPHASE 2 - Gallery ( BUYING )" style="swimlane;fontStyle=0;childLayout=stackLayout;horizontal=1;startSize=80;horizontalStack=0;resizeParent=1;resizeParentMax=0;resizeLast=0;collapsible=1;marginBottom=0;fontSize=30;rounded=0;shadow=1;sketch=0;glass=0;swimlaneLine=1;strokeWidth=3;fillColor=#0050ef;fontColor=#ffffff;strokeColor=#001DBC;swimlaneFillColor=default;" parent="1" vertex="1">
                    <mxGeometry x="208" y="1134" width="604" height="200" as="geometry"/>
                </mxCell>
                <mxCell id="17" value="Developing a section for showing &quot;FOR SALE&quot; NFTs " style="text;strokeColor=none;fillColor=none;align=left;verticalAlign=middle;spacingLeft=4;spacingRight=4;overflow=hidden;points=[[0,0.5],[1,0.5]];portConstraint=eastwest;rotatable=0;fontSize=20;" parent="16" vertex="1">
                    <mxGeometry y="80" width="604" height="30" as="geometry"/>
                </mxCell>
                <mxCell id="18" value="Showing essential information about each listed NFT" style="text;strokeColor=none;fillColor=none;align=left;verticalAlign=middle;spacingLeft=4;spacingRight=4;overflow=hidden;points=[[0,0.5],[1,0.5]];portConstraint=eastwest;rotatable=0;fontSize=20;" parent="16" vertex="1">
                    <mxGeometry y="110" width="604" height="30" as="geometry"/>
                </mxCell>
                <mxCell id="25" value="Each NFT can be bought for a fixed price" style="text;strokeColor=none;fillColor=none;align=left;verticalAlign=middle;spacingLeft=4;spacingRight=4;overflow=hidden;points=[[0,0.5],[1,0.5]];portConstraint=eastwest;rotatable=0;fontSize=20;" parent="16" vertex="1">
                    <mxGeometry y="140" width="604" height="30" as="geometry"/>
                </mxCell>
                <mxCell id="19" value="Pushing the updates to the online project" style="text;strokeColor=none;fillColor=none;align=left;verticalAlign=middle;spacingLeft=4;spacingRight=4;overflow=hidden;points=[[0,0.5],[1,0.5]];portConstraint=eastwest;rotatable=0;fontSize=20;" parent="16" vertex="1">
                    <mxGeometry y="170" width="604" height="30" as="geometry"/>
                </mxCell>
                <mxCell id="31" value="&lt;font style=&quot;font-size: 27px;&quot;&gt;45 hours&lt;/font&gt;" style="shape=note;whiteSpace=wrap;html=1;backgroundOutline=1;darkOpacity=0.05;fontSize=27;fillColor=#1ba1e2;fontColor=#ffffff;strokeColor=#006EAF;" parent="1" vertex="1">
                    <mxGeometry x="738" y="254" width="160" height="80" as="geometry"/>
                </mxCell>
                <mxCell id="49" value="&lt;font style=&quot;font-size: 27px;&quot;&gt;12 days&lt;/font&gt;" style="shape=note;whiteSpace=wrap;html=1;backgroundOutline=1;darkOpacity=0.05;fontSize=27;fillColor=#1ba1e2;fontColor=#ffffff;strokeColor=#006EAF;" parent="1" vertex="1">
                    <mxGeometry x="738" y="354" width="160" height="80" as="geometry"/>
                </mxCell>
                <mxCell id="50" style="edgeStyle=none;html=1;fontSize=12;strokeWidth=3;entryX=0;entryY=0.5;entryDx=0;entryDy=0;exitX=1;exitY=0.656;exitDx=0;exitDy=0;exitPerimeter=0;" parent="1" source="3" target="51" edge="1">
                    <mxGeometry relative="1" as="geometry">
                        <mxPoint x="1248" y="339" as="targetPoint"/>
                    </mxGeometry>
                </mxCell>
                <mxCell id="53" style="edgeStyle=none;html=1;exitX=1;exitY=0.5;exitDx=0;exitDy=0;entryX=0;entryY=0.5;entryDx=0;entryDy=0;fontSize=12;strokeWidth=3;" parent="1" source="51" target="52" edge="1">
                    <mxGeometry relative="1" as="geometry"/>
                </mxCell>
                <mxCell id="51" value="Payment" style="rounded=1;whiteSpace=wrap;html=1;fontSize=22;fillColor=#008a00;fontColor=#ffffff;strokeColor=#005700;" parent="1" vertex="1">
                    <mxGeometry x="1208" y="304" width="200" height="80" as="geometry"/>
                </mxCell>
                <mxCell id="69" style="edgeStyle=none;html=1;exitX=1;exitY=0.5;exitDx=0;exitDy=0;fontSize=30;strokeWidth=3;" parent="1" source="52" edge="1">
                    <mxGeometry relative="1" as="geometry">
                        <mxPoint x="207" y="784" as="targetPoint"/>
                        <Array as="points">
                            <mxPoint x="2208" y="544"/>
                            <mxPoint x="128" y="544"/>
                            <mxPoint x="128" y="784"/>
                        </Array>
                    </mxGeometry>
                </mxCell>
                <mxCell id="52" value="Uploading the developed code to the shared repository" style="rounded=1;whiteSpace=wrap;html=1;fontSize=22;fillColor=#0050ef;fontColor=#ffffff;strokeColor=#001DBC;" parent="1" vertex="1">
                    <mxGeometry x="1648" y="304" width="560" height="80" as="geometry"/>
                </mxCell>
                <mxCell id="54" value="&lt;font style=&quot;font-size: 27px;&quot;&gt;80 hours&lt;/font&gt;" style="shape=note;whiteSpace=wrap;html=1;backgroundOutline=1;darkOpacity=0.05;fontSize=27;fillColor=#1ba1e2;fontColor=#ffffff;strokeColor=#006EAF;" parent="1" vertex="1">
                    <mxGeometry x="818" y="670" width="160" height="80" as="geometry"/>
                </mxCell>
                <mxCell id="55" value="&lt;font style=&quot;font-size: 27px;&quot;&gt;14 days&lt;/font&gt;" style="shape=note;whiteSpace=wrap;html=1;backgroundOutline=1;darkOpacity=0.05;fontSize=27;fillColor=#1ba1e2;fontColor=#ffffff;strokeColor=#006EAF;" parent="1" vertex="1">
                    <mxGeometry x="818" y="771" width="160" height="80" as="geometry"/>
                </mxCell>
                <mxCell id="56" style="edgeStyle=none;html=1;exitX=1;exitY=0.5;exitDx=0;exitDy=0;entryX=0;entryY=0.5;entryDx=0;entryDy=0;fontSize=12;strokeWidth=3;" parent="1" source="57" target="58" edge="1">
                    <mxGeometry relative="1" as="geometry"/>
                </mxCell>
                <mxCell id="57" value="Payment" style="rounded=1;whiteSpace=wrap;html=1;fontSize=22;fillColor=#008a00;fontColor=#ffffff;strokeColor=#005700;" parent="1" vertex="1">
                    <mxGeometry x="1218" y="721" width="200" height="80" as="geometry"/>
                </mxCell>
                <mxCell id="71" style="edgeStyle=none;html=1;exitX=1;exitY=0.5;exitDx=0;exitDy=0;fontSize=30;strokeWidth=3;" parent="1" source="58" edge="1">
                    <mxGeometry relative="1" as="geometry">
                        <mxPoint x="208" y="1264" as="targetPoint"/>
                        <Array as="points">
                            <mxPoint x="2208" y="1014"/>
                            <mxPoint x="128" y="1014"/>
                            <mxPoint x="128" y="1264"/>
                        </Array>
                    </mxGeometry>
                </mxCell>
                <mxCell id="58" value="Uploading the developed code to the shared repository" style="rounded=1;whiteSpace=wrap;html=1;fontSize=22;fillColor=#0050ef;fontColor=#ffffff;strokeColor=#001DBC;" parent="1" vertex="1">
                    <mxGeometry x="1648" y="721" width="560" height="80" as="geometry"/>
                </mxCell>
                <mxCell id="61" style="edgeStyle=none;html=1;entryX=0;entryY=0.5;entryDx=0;entryDy=0;fontSize=12;strokeWidth=3;" parent="1" target="57" edge="1">
                    <mxGeometry relative="1" as="geometry">
                        <mxPoint x="810" y="761" as="sourcePoint"/>
                    </mxGeometry>
                </mxCell>
                <mxCell id="63" value="&lt;font style=&quot;font-size: 27px;&quot;&gt;80 hours&lt;/font&gt;" style="shape=note;whiteSpace=wrap;html=1;backgroundOutline=1;darkOpacity=0.05;fontSize=27;fillColor=#1ba1e2;fontColor=#ffffff;strokeColor=#006EAF;" parent="1" vertex="1">
                    <mxGeometry x="822" y="1144" width="160" height="80" as="geometry"/>
                </mxCell>
                <mxCell id="64" value="&lt;font style=&quot;font-size: 27px;&quot;&gt;14 days&lt;/font&gt;" style="shape=note;whiteSpace=wrap;html=1;backgroundOutline=1;darkOpacity=0.05;fontSize=27;fillColor=#1ba1e2;fontColor=#ffffff;strokeColor=#006EAF;" parent="1" vertex="1">
                    <mxGeometry x="824" y="1244" width="160" height="80" as="geometry"/>
                </mxCell>
                <mxCell id="65" style="edgeStyle=none;html=1;exitX=1;exitY=0.5;exitDx=0;exitDy=0;entryX=0;entryY=0.5;entryDx=0;entryDy=0;fontSize=12;strokeWidth=3;" parent="1" source="66" target="67" edge="1">
                    <mxGeometry relative="1" as="geometry"/>
                </mxCell>
                <mxCell id="66" value="Payment" style="rounded=1;whiteSpace=wrap;html=1;fontSize=22;fillColor=#008a00;fontColor=#ffffff;strokeColor=#005700;" parent="1" vertex="1">
                    <mxGeometry x="1218" y="1194" width="200" height="80" as="geometry"/>
                </mxCell>
                <mxCell id="67" value="Uploading the developed code to the shared repository" style="rounded=1;whiteSpace=wrap;html=1;fontSize=22;fillColor=#0050ef;fontColor=#ffffff;strokeColor=#001DBC;" parent="1" vertex="1">
                    <mxGeometry x="1648" y="1194" width="560" height="80" as="geometry"/>
                </mxCell>
            </root>
        </mxGraphModel>
    </diagram>
</mxfile>